Coordinates
version=1
nRows=21
nColumns=12
inDegrees=yes

Units are S.I. units (second, meters, Newtons, ...)
Angles are in degrees

endheader
time	SC_y	SC_z	SC_x	AC_y	AC_z	AC_x	GH_y	GH_z	GH_yy	EL_x	PS_y
       0.0              -33.25         -3.639          29.29          64.51          3.903          14.82          -77.4          46.61          50.21          63.02          140.4
   0.02872              -33.25         -3.633          29.29          64.51            3.9          14.82         -77.41          46.62          50.18          63.01          140.4
   0.05744              -33.25         -3.626           29.3           64.5          3.897          14.82         -77.43          46.62          50.14          63.01          140.3
   0.08617              -33.25         -3.619          29.31           64.5          3.893          14.82         -77.44          46.63          50.11           63.0          140.3
    0.1149              -33.25         -3.612          29.32           64.5           3.89          14.82         -77.46          46.63          50.08          62.99          140.3
    0.1436              -33.25         -3.604          29.32           64.5          3.886          14.82         -77.47          46.64          50.04          62.98          140.3
    0.1723              -33.25         -3.596          29.33          64.49          3.881          14.82         -77.49          46.64           50.0          62.97          140.3
    0.2011              -33.25         -3.587          29.34          64.49          3.877          14.82         -77.51          46.65          49.95          62.97          140.3
    0.2298              -33.25         -3.578          29.35          64.49          3.872          14.82         -77.53          46.65          49.91          62.96          140.2
    0.2585              -33.25         -3.568          29.36          64.49          3.867          14.82         -77.55          46.66          49.86          62.94          140.2
    0.2872              -33.25         -3.557          29.37          64.48          3.861          14.82         -77.58          46.67           49.8          62.93          140.2
    0.3159              -33.25         -3.545          29.39          64.48          3.855          14.82          -77.6          46.67          49.75          62.92          140.2
    0.3447              -33.25         -3.533           29.4          64.47          3.848          14.82         -77.63          46.68          49.68          62.91          140.1
    0.3734              -33.25         -3.519          29.41          64.47          3.841          14.82         -77.66          46.69          49.62          62.89          140.1
    0.4021              -33.25         -3.505          29.43          64.47          3.834          14.82         -77.69           46.7          49.55          62.88          140.1
    0.4308              -33.25         -3.489          29.45          64.46          3.825          14.82         -77.73          46.71          49.47          62.86          140.0
    0.4596              -33.25         -3.471          29.47          64.45          3.816          14.82         -77.77          46.72          49.38          62.84          140.0
    0.4883              -33.25         -3.452          29.49          64.45          3.806          14.82         -77.81          46.74          49.29          62.82          140.0
     0.517              -33.25         -3.432          29.51          64.44          3.796          14.82         -77.85          46.75          49.19           62.8          139.9
    0.5457              -33.25         -3.409          29.53          64.43          3.784          14.82          -77.9          46.77          49.08          62.77          139.9
    0.5744              -33.25         -3.384          29.56          64.43          3.771          14.82         -77.96          46.78          48.95          62.75          139.8
